<svg id="Layer_2" data-name="Layer 2" xmlns="http://www.w3.org/2000/svg" viewBox="0 0 830.05 553.66"><defs><style>.cls-1{fill:#202020;}</style></defs><polygon id="Color_tint" data-name="Color tint" class="cls-1" points="443.76 507.78 474.79 468.97 474.79 438.17 473.29 438.17 408.7 511.08 344.03 438.17 342.52 438.17 342.52 469.17 371.08 504.88 408.62 549.41 408.79 549.41 443.76 507.83 443.76 507.78"/><g id="Logo"><path class="cls-1" d="M85,733.63V664.08h27.31v69.48c0,12.05,11.65,20.81,24.71,20.81s24.88-8.83,24.88-20.81V664.08h27.31v69.55c0,25-23.37,43.2-52.1,43.2S85,758.62,85,733.63Z" transform="translate(-84.97 -223.17)"/><path class="cls-1" d="M315.27,755.4,337,742.94c6,7.81,14.58,11.37,26.22,11.37,12.73,0,21.28-4.25,21.28-10.14,0-8.07-16.17-14.44-30.33-20.19C339,717.82,322.3,711,322.3,693.44c0-19.1,19.77-31.69,44.57-31.69,18.43,0,33.67,6.23,39.79,19.58l-20,11.43c-4-6.57-11.81-9.24-19.35-9.24-10.14,0-17.68,4.79-17.68,10.47,0,6.57,10.22,8.83,25.72,14.79,22.36,8.63,36.44,17.94,36.44,34.91,0,20.13-20.11,32.93-49,32.93C340.65,776.62,324.31,769.09,315.27,755.4Z" transform="translate(-84.97 -223.17)"/><path class="cls-1" d="M915,686.05H881.85v88.38H854.63V686.05H821.37v-22H915Z" transform="translate(-84.97 -223.17)"/><path class="cls-1" d="M258.88,664.08H211.46v22h47.42c11.22,0,20.35,6.78,20.35,15.13,0,8.56-9.13,15.54-20.35,15.47l-17.83-.06v.06h-29.6v57.78H238.6V738.56h20.28c26.13,0,47.49-16.7,47.49-37.17S285,664.08,258.88,664.08Z" transform="translate(-84.97 -223.17)"/><polygon class="cls-1" points="342.52 495.19 342.52 551.26 369.67 551.26 369.67 525.77 342.52 495.19"/><polygon class="cls-1" points="447.65 525.88 447.65 551.26 474.79 551.26 474.79 495.3 447.65 525.88"/><polygon class="cls-1" points="553.62 438.17 552.78 438.17 488.28 551.26 517.6 551.26 524.93 538.18 524.93 538.18 536.79 516.97 536.78 516.97 553.28 487.46 565.54 509.48 565.54 509.48 580.25 535.86 580.26 535.86 588.8 551.26 618.21 551.26 553.62 438.17"/><path class="cls-1" d="M781.67,730.55c14.49-4.18,25-16.57,25-30.74,0-19.85-20.69-35.73-45.9-35.73H716.66l0,22h44.55c9.13,0,17.42,6,17.42,13.9s-8.21,14-17.42,13.9l-13-.05v.05H716.7l0,60.58h27.14V722.27l43,52.16H820Z" transform="translate(-84.97 -223.17)"/><rect class="cls-1" x="648.95" y="490.67" width="25.74" height="16.62"/><polygon class="cls-1" points="195.77 383.35 195.77 383.04 413.25 124.47 414.3 124.47 645.25 398.46 745.39 398.46 648.18 276.89 414.79 0 413.75 0 196.27 258.57 196.27 258.88 84.67 398.46 183.69 398.46 195.77 383.35"/><polygon class="cls-1" points="320.49 391.94 320.49 391.81 414.26 280.33 414.71 280.33 514.29 398.46 557.46 398.46 515.55 346.04 414.93 226.66 414.48 226.66 320.71 338.14 320.71 338.28 272.59 398.46 315.28 398.46 320.49 391.94"/></g></svg>