<?xml version="1.0" encoding="utf-8"?>
<svg version="1.1" xmlns:xlink="http://www.w3.org/1999/xlink" width="10px" height="7px" xmlns="http://www.w3.org/2000/svg">
  <g transform="matrix(1 0 0 1 -1006 -74 )">
    <path d="M 10 1.55217391304348  C 10 1.67165861513688  9.96071133167907 1.77423510466989  9.88213399503722 1.85990338164251  L 5.27915632754342 6.87149758454106  C 5.20057899090157 6.95716586151369  5.10752688172043 7  5 7  C 4.89247311827957 7  4.79942100909843 6.95716586151369  4.72084367245658 6.87149758454106  L 0.117866004962779 1.85990338164251  C 0.0392886683209264 1.77423510466989  0 1.67165861513688  0 1.55217391304348  C 0 1.43268921095008  0.0392886683209264 1.33011272141707  0.117866004962779 1.24444444444444  L 1.14764267990074 0.128502415458937  C 1.2262200165426 0.0428341384863121  1.31927212572374 0  1.42679900744417 0  C 1.5343258891646 0  1.62737799834574 0.0428341384863121  1.70595533498759 0.128502415458937  L 5 3.71980676328502  L 8.29404466501241 0.128502415458937  C 8.37262200165426 0.0428341384863121  8.4656741108354 0  8.57320099255583 0  C 8.68072787427626 0  8.7737799834574 0.0428341384863121  8.85235732009926 0.128502415458937  L 9.88213399503722 1.24444444444444  C 9.96071133167907 1.33011272141707  10 1.43268921095008  10 1.55217391304348  Z " fill-rule="nonzero" fill="#000000" stroke="none" transform="matrix(1 0 0 1 1006 74 )" />
  </g>
</svg>