<?xml version="1.0" encoding="utf-8"?>
<!-- Generator: Adobe Illustrator 18.1.1, SVG Export Plug-In . SVG Version: 6.00 Build 0)  -->
<svg version="1.1" id="Laag_1" xmlns="http://www.w3.org/2000/svg" xmlns:xlink="http://www.w3.org/1999/xlink" x="0px" y="0px"
	 viewBox="-0.2 460.2 595.3 448.5" enable-background="new -0.2 460.2 595.3 448.5" xml:space="preserve">
<g>
	<path fill="#AC162C" d="M403.6,703.2v30l0.5,0.5H415c7.7,0,12.1-2.3,13.5-6.7c0.7-2.1,0.9-4,0.9-6.1v-29.1h-13.7
		C407.8,691.8,403.6,695.5,403.6,703.2z"/>
	<path fill="#AC162C" d="M154.4,692.5c-1.1-0.5-2.8-0.7-4.7-0.7h-1.8c-6.5,0-10.7,2.3-12.1,6.7c-0.5,2.3-0.5,4.7-0.5,7v2.5h24.9
		c0.7,0,1.1-0.5,1.1-1.1v-3.5C160.9,698,158.7,694.4,154.4,692.5z"/>
	<path fill="#AC162C" d="M256.4,692.5c-1.1-0.5-2.8-0.7-4.7-0.7h-1.8c-6.5,0-10.7,2.3-12.1,6.7c-0.5,2.3-0.5,4.7-0.5,7v2.5h25
		c0.7,0,1.1-0.5,1.1-1.1v-3.5C263.2,698,261.1,694.4,256.4,692.5z"/>
	<path fill="#AC162C" d="M476.6,544.8L84.1,460.2c0,0-52.8,110-67.2,139.1C-34,706,39.3,783.2,96.5,805.7
		c32.8,13,29.3,13.2,74.2,22.1c31.2,6.1,316.7,29.6,379.7,80.9c24-108.1,38.4-177.2,38.4-177.2C611.3,628.1,573.8,565.7,476.6,544.8
		z M106.9,742l-0.5,0.5c-5.8,0-8.6-2.8-8.6-8.1v-37.3H72V742l-0.5,0.5c-4.2,0-6.7-1.6-7.9-4.7l-0.5-1.6v-78.8l0.5-0.5h1.1
		c4.9,0.7,7.2,3,7.2,6.7V688l0.5,0.5H98v-31.2l0.5-0.5h1.1c4.9,0.5,7.4,3,7.4,7.4v77.6h-0.1V742z M169.4,710.6
		c0,2.3-1.6,4.2-4.7,5.6c-0.5,0.2-1.1,0.5-2.1,0.5h-27.9v7.2c0,4.4,2.3,7.7,7.2,9.5c1.6,0.5,4,0.5,6.3,0.5h15.3c4,0.9,5.8,3,5.8,6.5
		v1.6l-0.5,0.5h-21.6c-10.3,0-17-4-20-11.9c-0.9-2.1-1.4-4.7-1.4-7.7v-18.6c0-10,4.2-16.5,12.3-20c2.5-0.9,5.6-1.4,9.3-1.4
		c8.8,0,14.8,2.5,17.9,7.9c2.5,3.5,3.7,7.4,3.7,11.6v8.1L169.4,710.6L169.4,710.6z M211.8,685c0,2.1-0.9,4-2.5,5.6
		c-0.5,0.5-2.5,1.1-6.5,2.1c-4,1.8-5.8,5.8-5.8,11.4v38.1l-0.5,0.5h-1.6c-4.4,0-6.7-2.5-7-7.7v-51.6l0.5-0.5h0.9
		c2.8,0,4.9,1.1,6.5,3.5h0.5c3.3-2.1,6.7-3.3,10.3-3.3h5.1l0.5,0.5v1.4H211.8L211.8,685z M271.7,710.6c0,2.3-1.6,4.2-4.7,5.6
		c-0.5,0.2-1.1,0.5-2.1,0.5H237v7.2c0,4.4,2.3,7.7,7.2,9.5c1.6,0.5,4,0.5,6.3,0.5h15.3c4,0.9,5.8,3,5.8,6.5v1.6l-0.5,0.5h-21.6
		c-10.3,0-17-4-20-11.9c-0.9-2.1-1.4-4.7-1.4-7.7v-18.6c0-10,4.2-16.5,12.3-20c2.5-0.9,5.6-1.4,9.3-1.4c8.8,0,14.8,2.5,17.9,7.9
		c2.5,3.5,3.7,7.4,3.7,11.6v8.1L271.7,710.6L271.7,710.6z M333.6,742l-0.5,0.5h-0.9c-4.9-0.5-7.4-2.8-7.4-6.5v-28.8
		c0-7.7-1.4-12.1-4.4-13.2c-2.1-1.1-4.7-1.8-8.1-1.8h-2.8c-5.4,0-8.8,2.8-10.3,8.1l-0.5,4v38.1l-0.5,0.5h-0.9c-3.5,0-5.8-1.6-7-4.7
		c-0.2-0.5-0.5-1.1-0.5-2.1v-52.3c0-0.2,0.7-0.5,2.3-0.5c2.8,0,4.7,1.1,5.8,3.3h0.5c2.5-2.1,7.4-3.3,14.4-3.3
		c10,0,16.5,4.2,19.5,12.6c0.7,2.5,1.1,5.8,1.1,10L333.6,742L333.6,742z M379.9,742l-0.5,0.5h-7c-9.5,0-15.8-4.7-19.3-13.7
		c-0.5-2.8-0.7-4.9-0.7-6.7v-64.4l0.5-0.5h1.4c3,0,5.4,1.4,6.5,4c0.5,0.9,0.5,1.8,0.5,3v19.1h9.8c3.3,0,5.4,1.6,6.7,4.7
		c0.2,0.5,0.5,1.1,0.5,2.1v1.6l-0.5,0.5h-16.3v29.3c0,5.8,1.8,9.8,5.8,11.6c2.3,0.9,4.9,1.4,7.9,1.4c3.3,1.4,4.9,3.7,4.9,6.7v0.9
		L379.9,742L379.9,742z M438.3,741.5l-0.5,0.5h-1.4c-2.5,0-4.7-1.1-6.3-3.5c-3.3,2.3-7.2,3.5-11.6,3.5h-23.1l-0.5-0.5V702
		c0-8.8,4.2-14.6,12.3-17.7c2.1-0.7,4.7-1.1,7.4-1.1h23.1l0.5,0.5L438.3,741.5L438.3,741.5z M483.9,742l-0.5,0.5H475
		c-9.5,0-15.8-4.9-18.6-14.6c-0.5-2.5-0.7-4.9-0.7-6.7l0.2-63.7l0.2-0.2h1.4c3.5,0,5.8,1.6,6.7,4.9l0.5,2.5v57.4
		c0,5.4,2.1,8.8,6.3,11c1.6,0.5,4.4,0.9,8.3,0.9c3,1.4,4.7,3.7,4.7,6.7v1.4L483.9,742L483.9,742z M541.5,683.9
		c0,4.4-1.8,6.7-5.6,7.7l-1.6,0.2h-17.2c-4.2,0-7.7,2.1-10.3,6.5l-0.2,1.6c0,2.5,2.1,4.9,6.5,7.2c2.1,0.7,6.1,0.9,11.9,0.9
		c5.1,1.1,8.8,3.3,11.4,5.8c3.3,3.7,4.9,7.7,4.9,11.4c0,6.3-3.7,11.4-11,15.3c-2.3,1.1-4.9,1.6-7.2,1.6h-24.7l-0.5-0.5v-1.6
		c0-3.7,2.3-6.1,7-6.7h14.7c6.7,0,11-2.3,12.6-7l0.2-0.9v-1.1c0-2.5-1.8-4.9-5.8-7.2c-3.3-0.9-7.4-1.4-12.6-1.4
		c-3.7-0.9-7.2-2.5-10.3-4.9c-3.5-4-5.1-7.4-5.1-11v-1.4c0-4.9,3-9.5,9.1-13.5c3.5-1.6,6.5-2.5,9.1-2.5l2.1,0.2l18.6-0.2h3.7
		l0.5,0.5v0.9L541.5,683.9L541.5,683.9z"/>
</g>
</svg>
