<?xml version="1.0" encoding="utf-8"?>
<svg version="1.1" xmlns:xlink="http://www.w3.org/1999/xlink" width="31px" height="31px" xmlns="http://www.w3.org/2000/svg">
  <g transform="matrix(1 0 0 1 -308 -719 )">
    <path d="M 20.4850260416667 25.6516927083333  C 20.6061197916667 25.5305989583333  20.6666666666667 25.3758680555556  20.6666666666667 25.1875  L 20.6666666666667 21.9583333333333  C 20.6666666666667 21.7699652777778  20.6061197916667 21.615234375  20.4850260416667 21.494140625  C 20.3639322916667 21.373046875  20.2092013888889 21.3125  20.0208333333333 21.3125  L 18 21.3125  L 18 10.9791666666667  C 18.0833333333333 10.7907986111111  18.0227864583333 10.6360677083333  17.9016927083333 10.5149739583333  C 17.7805989583333 10.3938802083333  17.6258680555556 10.3333333333333  17.4375 10.3333333333333  L 10.9791666666667 10.3333333333333  C 10.7907986111111 10.3333333333333  10.6360677083333 10.3938802083333  10.5149739583333 10.5149739583333  C 10.3938802083333 10.6360677083333  10.3333333333333 10.7907986111111  10.3333333333333 10.9791666666667  L 10.3333333333333 14.2083333333333  C 10.3333333333333 14.3967013888889  10.3938802083333 14.5514322916667  10.5149739583333 14.6725260416667  C 10.6360677083333 14.7936197916667  10.7907986111111 14.8541666666667  10.9791666666667 14.8541666666667  L 12.9166666666667 14.8541666666667  L 12.9166666666667 21.3125  L 10.9791666666667 21.3125  C 10.7907986111111 21.3125  10.6360677083333 21.373046875  10.5149739583333 21.494140625  C 10.3938802083333 21.615234375  10.3333333333333 21.7699652777778  10.3333333333333 21.9583333333333  L 10.3333333333333 25.1875  C 10.3333333333333 25.3758680555556  10.3938802083333 25.5305989583333  10.5149739583333 25.6516927083333  C 10.6360677083333 25.7727864583333  10.7907986111111 25.8333333333333  10.9791666666667 25.8333333333333  L 20.0208333333333 25.8333333333333  C 20.2092013888889 25.8333333333333  20.3639322916667 25.7727864583333  20.4850260416667 25.6516927083333  Z M 17.9016927083333 7.568359375  C 18.0227864583333 7.447265625  18.0833333333333 7.29253472222222  18.0833333333333 7.10416666666667  L 18.0833333333333 3.875  C 18.0833333333333 3.68663194444444  18.0227864583333 3.53190104166667  17.9016927083333 3.41080729166667  C 17.7805989583333 3.28971354166667  17.6258680555556 3.22916666666667  17.4375 3.22916666666667  L 13.5625 3.22916666666667  C 13.3741319444444 3.22916666666667  13.2194010416667 3.28971354166667  13.0983072916667 3.41080729166667  C 12.9772135416667 3.53190104166667  12.9166666666667 3.68663194444444  12.9166666666667 3.875  L 12.9166666666667 7.10416666666667  C 12.9166666666667 7.29253472222222  12.9772135416667 7.447265625  13.0983072916667 7.568359375  C 13.2194010416667 7.689453125  13.3741319444444 7.75  13.5625 7.75  L 17.4375 7.75  C 17.6258680555556 7.75  17.7805989583333 7.689453125  17.9016927083333 7.568359375  Z M 28.9212239583333 7.7197265625  C 30.3070746527778 10.0945095486111  31 12.6879340277778  31 15.5  C 31 18.3120659722222  30.3070746527778 20.9054904513889  28.9212239583333 23.2802734375  C 27.5353732638889 25.6550564236111  25.6550564236111 27.5353732638889  23.2802734375 28.9212239583333  C 20.9054904513889 30.3070746527778  18.3120659722222 31  15.5 31  C 12.6879340277778 31  10.0945095486111 30.3070746527778  7.7197265625 28.9212239583333  C 5.34494357638889 27.5353732638889  3.46462673611111 25.6550564236111  2.07877604166667 23.2802734375  C 0.692925347222222 20.9054904513889  0 18.3120659722222  0 15.5  C 0 12.6879340277778  0.692925347222222 10.0945095486111  2.07877604166667 7.7197265625  C 3.46462673611111 5.34494357638889  5.34494357638889 3.46462673611111  7.7197265625 2.07877604166667  C 10.0945095486111 0.69292534722222  12.6879340277778 0  15.5 0  C 18.3120659722222 0  20.9054904513889 0.69292534722222  23.2802734375 2.07877604166667  C 25.6550564236111 3.46462673611111  27.5353732638889 5.34494357638889  28.9212239583333 7.7197265625  Z " fill-rule="nonzero" fill="#000000" stroke="none" transform="matrix(1 0 0 1 308 719 )" />
  </g>
</svg>