<?xml version="1.0" encoding="utf-8"?>
<svg version="1.1" xmlns:xlink="http://www.w3.org/1999/xlink" width="7px" height="20px" xmlns="http://www.w3.org/2000/svg">
  <g transform="matrix(1 0 0 1 -811 -857 )">
    <path d="M 6.48958333333333 14.9431818181818  C 6.82986111111111 15.2083333333333  7 15.530303030303  7 15.9090909090909  L 7 18.6363636363636  C 7 19.0151515151515  6.82986111111111 19.3371212121212  6.48958333333333 19.6022727272727  C 6.14930555555556 19.8674242424242  5.73611111111111 20  5.25 20  L 1.75 20  C 1.26388888888889 20  0.850694444444445 19.8674242424242  0.510416666666667 19.6022727272727  C 0.170138888888889 19.3371212121212  0 19.0151515151515  0 18.6363636363636  L 0 15.9090909090909  C 0 15.530303030303  0.170138888888889 15.2083333333333  0.510416666666667 14.9431818181818  C 0.850694444444445 14.6780303030303  1.26388888888889 14.5454545454545  1.75 14.5454545454545  L 5.25 14.5454545454545  C 5.73611111111111 14.5454545454545  6.14930555555556 14.6780303030303  6.48958333333333 14.9431818181818  Z M 6.48958333333333 7.67045454545455  C 6.82986111111111 7.93560606060606  7 8.25757575757576  7 8.63636363636363  L 7 11.3636363636364  C 7 11.7424242424242  6.82986111111111 12.0643939393939  6.48958333333333 12.3295454545455  C 6.14930555555556 12.594696969697  5.73611111111111 12.7272727272727  5.25 12.7272727272727  L 1.75 12.7272727272727  C 1.26388888888889 12.7272727272727  0.850694444444445 12.594696969697  0.510416666666667 12.3295454545455  C 0.170138888888889 12.0643939393939  0 11.7424242424242  0 11.3636363636364  L 0 8.63636363636363  C 0 8.25757575757576  0.170138888888889 7.93560606060606  0.510416666666667 7.67045454545455  C 0.850694444444445 7.40530303030303  1.26388888888889 7.27272727272727  1.75 7.27272727272727  L 5.25 7.27272727272727  C 5.73611111111111 7.27272727272727  6.14930555555556 7.40530303030303  6.48958333333333 7.67045454545455  Z M 6.48958333333333 0.397727272727273  C 6.82986111111111 0.662878787878787  7 0.984848484848484  7 1.36363636363636  L 7 4.09090909090909  C 7 4.46969696969697  6.82986111111111 4.79166666666667  6.48958333333333 5.05681818181818  C 6.14930555555556 5.3219696969697  5.73611111111111 5.45454545454545  5.25 5.45454545454545  L 1.75 5.45454545454545  C 1.26388888888889 5.45454545454545  0.850694444444445 5.3219696969697  0.510416666666667 5.05681818181818  C 0.170138888888889 4.79166666666667  0 4.46969696969697  0 4.09090909090909  L 0 1.36363636363636  C 0 0.984848484848484  0.170138888888889 0.662878787878787  0.510416666666667 0.397727272727273  C 0.850694444444445 0.132575757575757  1.26388888888889 0  1.75 0  L 5.25 0  C 5.73611111111111 0  6.14930555555556 0.132575757575757  6.48958333333333 0.397727272727273  Z " fill-rule="nonzero" fill="#000000" stroke="none" transform="matrix(1 0 0 1 811 857 )" />
  </g>
</svg>